<svg width="167" height="56" viewBox="0 0 167 56" fill="none" xmlns="http://www.w3.org/2000/svg">
<path d="M72.328 40H67.464V17.664H78.056C79.08 17.664 80.008 17.8347 80.84 18.176C81.672 18.5173 82.376 19.008 82.952 19.648C83.5493 20.2667 84.008 21.0133 84.328 21.888C84.648 22.7627 84.808 23.7333 84.808 24.8C84.808 26.3147 84.4667 27.6373 83.784 28.768C83.1227 29.8987 82.1093 30.72 80.744 31.232L85.128 40H79.72L75.816 31.808H72.328V40ZM77.448 27.712C78.1733 27.712 78.7387 27.5307 79.144 27.168C79.5707 26.784 79.784 26.2293 79.784 25.504V24.096C79.784 23.3707 79.5707 22.8267 79.144 22.464C78.7387 22.08 78.1733 21.888 77.448 21.888H72.328V27.712H77.448ZM95.3098 40.384C94.0298 40.384 92.8884 40.1813 91.8858 39.776C90.8831 39.3493 90.0298 38.7627 89.3258 38.016C88.6431 37.248 88.1204 36.32 87.7578 35.232C87.4164 34.144 87.2458 32.928 87.2458 31.584C87.2458 30.2613 87.4164 29.0667 87.7578 28C88.0991 26.912 88.6004 25.984 89.2618 25.216C89.9444 24.448 90.7764 23.8613 91.7578 23.456C92.7391 23.0293 93.8591 22.816 95.1178 22.816C96.5044 22.816 97.6884 23.0507 98.6698 23.52C99.6724 23.9893 100.483 24.6187 101.102 25.408C101.742 26.1973 102.2 27.1147 102.478 28.16C102.776 29.184 102.926 30.2613 102.926 31.392V32.8H92.1418V33.056C92.1418 34.1653 92.4404 35.0507 93.0378 35.712C93.6351 36.352 94.5738 36.672 95.8538 36.672C96.8351 36.672 97.6351 36.48 98.2538 36.096C98.8724 35.6907 99.4484 35.2107 99.9818 34.656L102.35 37.6C101.603 38.4747 100.622 39.1573 99.4058 39.648C98.2111 40.1387 96.8458 40.384 95.3098 40.384ZM95.2138 26.304C94.2538 26.304 93.4964 26.624 92.9418 27.264C92.4084 27.8827 92.1418 28.7147 92.1418 29.76V30.016H98.0298V29.728C98.0298 28.704 97.7951 27.8827 97.3258 27.264C96.8778 26.624 96.1738 26.304 95.2138 26.304ZM113.055 40.384C111.796 40.384 110.676 40.1813 109.695 39.776C108.713 39.3493 107.892 38.7627 107.231 38.016C106.569 37.248 106.068 36.32 105.727 35.232C105.385 34.144 105.215 32.928 105.215 31.584C105.215 30.24 105.385 29.0347 105.727 27.968C106.068 26.88 106.569 25.952 107.231 25.184C107.892 24.416 108.713 23.8293 109.695 23.424C110.676 23.0187 111.796 22.816 113.055 22.816C114.761 22.816 116.18 23.2 117.311 23.968C118.463 24.736 119.284 25.8133 119.775 27.2L115.935 28.864C115.785 28.224 115.476 27.68 115.007 27.232C114.537 26.784 113.887 26.56 113.055 26.56C112.095 26.56 111.369 26.88 110.879 27.52C110.388 28.1387 110.143 28.9813 110.143 30.048V33.184C110.143 34.2507 110.388 35.0933 110.879 35.712C111.369 36.3307 112.095 36.64 113.055 36.64C113.908 36.64 114.58 36.416 115.071 35.968C115.583 35.4987 115.956 34.8907 116.191 34.144L119.871 35.744C119.316 37.344 118.452 38.5173 117.279 39.264C116.127 40.0107 114.719 40.384 113.055 40.384ZM135.218 40C134.364 40 133.65 39.7333 133.074 39.2C132.519 38.6667 132.167 37.952 132.018 37.056H131.826C131.57 38.144 131.004 38.976 130.13 39.552C129.255 40.1067 128.178 40.384 126.898 40.384C125.212 40.384 123.922 39.936 123.026 39.04C122.13 38.144 121.682 36.96 121.682 35.488C121.682 33.7173 122.322 32.4053 123.602 31.552C124.903 30.6773 126.663 30.24 128.882 30.24H131.538V29.184C131.538 28.3733 131.324 27.7333 130.898 27.264C130.471 26.7733 129.756 26.528 128.754 26.528C127.815 26.528 127.068 26.7307 126.514 27.136C125.959 27.5413 125.5 28 125.138 28.512L122.322 26.016C123.004 25.0133 123.858 24.2347 124.882 23.68C125.927 23.104 127.335 22.816 129.106 22.816C131.495 22.816 133.287 23.3387 134.482 24.384C135.676 25.4293 136.274 26.9547 136.274 28.96V36.32H137.842V40H135.218ZM128.658 37.088C129.447 37.088 130.119 36.9173 130.674 36.576C131.25 36.2347 131.538 35.68 131.538 34.912V32.928H129.234C127.378 32.928 126.45 33.5573 126.45 34.816V35.296C126.45 35.9147 126.642 36.3733 127.026 36.672C127.41 36.9493 127.954 37.088 128.658 37.088ZM146.717 40.384C145.095 40.384 143.73 40.128 142.621 39.616C141.511 39.0827 140.519 38.336 139.645 37.376L142.429 34.56C143.026 35.2213 143.687 35.744 144.413 36.128C145.138 36.512 145.959 36.704 146.877 36.704C147.815 36.704 148.466 36.5653 148.829 36.288C149.191 35.9893 149.373 35.5947 149.373 35.104C149.373 34.3147 148.807 33.8453 147.677 33.696L145.853 33.472C142.077 33.0027 140.189 31.2747 140.189 28.288C140.189 27.4773 140.338 26.7413 140.637 26.08C140.957 25.3973 141.394 24.8213 141.949 24.352C142.525 23.8613 143.207 23.488 143.997 23.232C144.807 22.9547 145.714 22.816 146.717 22.816C147.591 22.816 148.359 22.88 149.021 23.008C149.703 23.1147 150.301 23.2853 150.813 23.52C151.346 23.7333 151.826 24.0107 152.253 24.352C152.701 24.672 153.138 25.0347 153.565 25.44L150.845 28.224C150.311 27.6907 149.703 27.2747 149.021 26.976C148.359 26.656 147.677 26.496 146.973 26.496C146.162 26.496 145.586 26.624 145.245 26.88C144.903 27.136 144.733 27.4773 144.733 27.904C144.733 28.352 144.85 28.704 145.085 28.96C145.341 29.1947 145.81 29.3653 146.493 29.472L148.381 29.728C152.071 30.2187 153.917 31.904 153.917 34.784C153.917 35.5947 153.746 36.3413 153.405 37.024C153.063 37.7067 152.573 38.304 151.933 38.816C151.314 39.3067 150.557 39.6907 149.661 39.968C148.786 40.2453 147.805 40.384 146.717 40.384ZM162.784 40C161.141 40 159.893 39.584 159.04 38.752C158.208 37.92 157.792 36.704 157.792 35.104V26.88H155.424V23.2H156.608C157.248 23.2 157.685 23.0507 157.92 22.752C158.154 22.432 158.272 21.984 158.272 21.408V18.656H162.528V23.2H165.856V26.88H162.528V36.32H165.6V40H162.784Z" fill="url(#paint0_linear_687_11)"/>
<circle cx="28" cy="28" r="28" fill="url(#paint1_linear_687_11)"/>
<g clip-path="url(#clip0_687_11)">
<path opacity="0.35" d="M15.0809 39.1243C15.0784 36.8342 15.7435 34.49 17.0198 32.4515C17.0296 32.4409 17.0394 32.4303 17.0491 32.4198C17.8034 31.2312 19.1495 29.7182 20.471 28.3509C20.9551 27.8501 21.4356 27.3681 21.883 26.9296C22.6594 25.8092 23.8477 23.9553 24.5812 22.079C25.5079 19.877 25.5947 17.8526 25.6106 17.1296C25.6631 14.6632 24.9687 11.73 23.4418 9.82901C22.4931 8.67455 22.0187 8.3489 21.5444 7.94801C21.0688 7.54713 20.3634 7.48247 20.8476 8.46999C21.3317 9.45751 21.5517 10.0406 21.7583 11.0587C21.9943 12.2249 21.8011 13.4511 21.4295 14.6349C20.4612 17.2613 18.1348 19.4809 15.1799 22.5739C12.1028 25.3872 10 29.3149 10 33.8152C10 41.4909 16.2178 48.2248 23.6728 49.4604C22.7156 49.2076 21.7779 48.882 20.8867 48.4635C16.9318 46.6083 15.0796 42.9392 15.0809 39.1232V39.1243Z" fill="white"/>
<path d="M45.9939 31.5768C45.9071 28.3098 44.9193 31.491 44.9193 31.4934C43.929 34.6875 41.9754 37.7289 39.1012 39.698C36.5693 41.4309 33.0057 42.3232 30.3283 40.3035C29.651 39.7921 29.129 39.1137 28.8221 38.339C27.6045 35.2589 30.4286 32.5479 32.3394 30.4141C34.8554 27.6056 37.0706 23.9553 37.5278 20.2262C37.6745 19.0306 37.666 17.8185 37.5107 16.6241C37.3554 15.4297 37.0522 14.254 36.6121 13.1278C36.0314 11.6418 35.1867 10.2181 34.1487 8.96491C33.6169 8.32302 33.0326 7.7211 32.4029 7.16739C32.0533 6.85937 31.1621 5.86715 30.6205 6.01645C30.5043 6.07876 30.3124 6.21513 30.5337 6.71007C31.1046 7.78929 31.4689 8.64044 31.7709 9.64795C32.7318 12.8527 31.8088 16.4254 29.8307 19.0999C28.2598 21.2243 26.146 22.9701 24.1875 24.7465C24.1411 24.7888 23.1447 25.6905 21.8818 26.9296C21.4344 27.3693 20.9539 27.8501 20.4698 28.3509C19.1482 29.7193 17.8034 31.2312 17.0479 32.4197C17.0381 32.435 17.0283 32.4503 17.0186 32.4656C15.7435 34.4994 15.0796 36.8389 15.0796 39.1243C15.0833 42.9357 16.9354 46.5966 20.8854 48.4505C21.8219 48.8902 22.8085 49.2276 23.8159 49.4851C23.7682 49.478 23.7205 49.4686 23.6728 49.4616C23.7205 49.4745 23.7682 49.4874 23.8159 49.5004C23.8428 49.5074 23.8709 49.5145 23.8978 49.5215C28.0116 50.5584 32.6034 49.8613 36.3285 47.938C42.4803 44.7603 46.1711 38.2626 45.9927 31.578L45.9939 31.5768Z" fill="white" fill-opacity="0.6"/>
</g>
<defs>
<linearGradient id="paint0_linear_687_11" x1="66.9065" y1="16.1084" x2="168.395" y2="25.8196" gradientUnits="userSpaceOnUse">
<stop stop-color="#7348FF"/>
<stop offset="1" stop-color="#F34D7E"/>
</linearGradient>
<linearGradient id="paint1_linear_687_11" x1="1.04673" y1="12.1446" x2="57.1889" y2="14.3566" gradientUnits="userSpaceOnUse">
<stop stop-color="#7348FF"/>
<stop offset="1" stop-color="#F34D7E"/>
</linearGradient>
<clipPath id="clip0_687_11">
<rect width="36" height="44" fill="white" transform="translate(10 6)"/>
</clipPath>
</defs>
</svg>
